<svg width="74" height="76" viewBox="0 0 74 76" fill="none" xmlns="http://www.w3.org/2000/svg">
<g clip-path="url(#clip0_120_103)">
<path d="M36.7292 75.1944C56.5597 75.1944 72.6357 59.1415 72.6357 39.3394C72.6357 19.5371 56.5597 3.48428 36.7292 3.48428C16.8984 3.48428 0.82251 19.5371 0.82251 39.3394C0.82251 59.1415 16.8984 75.1944 36.7292 75.1944Z" fill="#FBD947"/>
<path d="M36.2305 3.50833C36.0188 16.3988 32.169 44.872 3.15217 52.0429C1.61043 47.988 0.825102 43.6868 0.834822 39.3509C0.828938 37.7531 0.937187 36.1569 1.15875 34.5745C2.13388 27.2379 5.36869 20.3827 10.4179 14.9526C15.4671 9.52242 22.0825 5.78427 29.3534 4.25272C31.6152 3.77782 33.919 3.52846 36.2305 3.50833Z" fill="#FBE481"/>
<path opacity="0.5" d="M72.0004 38.9147C72.0136 48.4057 68.2434 57.5139 61.5182 64.2389C54.7927 70.9638 45.6621 74.7559 36.131 74.7823C31.7429 74.7939 27.3908 73.9902 23.2985 72.4124C53.2872 61.3832 60.2017 35.441 58.6817 11.0496C62.8471 14.412 66.205 18.6592 68.5093 23.4805C70.8138 28.3019 72.0066 33.5752 72.0004 38.9147Z" fill="#F8A547"/>
<path d="M14.1536 32.5874H14.0165C13.9706 32.5697 13.9287 32.543 13.8932 32.5089C13.8577 32.475 13.8293 32.4344 13.8096 32.3895C13.7899 32.3443 13.7793 32.296 13.7785 32.247C13.7776 32.1979 13.7866 32.1491 13.8047 32.1034L15.8355 27.3021C15.874 27.2122 15.9466 27.1408 16.0375 27.1036C16.1285 27.0664 16.2305 27.0666 16.3214 27.1036C16.4098 27.1444 16.4794 27.2171 16.5164 27.3067C16.5533 27.3963 16.5549 27.4967 16.5208 27.5876L14.49 32.389C14.4557 32.448 14.4068 32.4973 14.3479 32.532C14.2889 32.5669 14.222 32.5859 14.1536 32.5874Z" fill="#3E3126"/>
<path d="M16.857 30.2669H16.72C16.6741 30.2491 16.6322 30.2224 16.5967 30.1885C16.5612 30.1544 16.5328 30.1138 16.5131 30.0689C16.4934 30.024 16.4828 29.9754 16.482 29.9264C16.4812 29.8774 16.4901 29.8288 16.5082 29.7831L17.5921 27.215C17.6098 27.1693 17.6366 27.1278 17.671 27.0926C17.7054 27.0577 17.7466 27.0299 17.7921 27.0114C17.8376 26.993 17.8864 26.9837 17.9356 26.9845C17.9848 26.9855 18.0332 26.9963 18.078 27.0163C18.1685 27.0548 18.2401 27.127 18.2774 27.2176C18.3147 27.3083 18.3147 27.4097 18.2774 27.5003L17.2059 29.9816C17.1835 30.0586 17.1382 30.1272 17.0759 30.1783C17.0137 30.2291 16.9373 30.2602 16.857 30.2669Z" fill="#3E3126"/>
<path d="M36.7286 75.2917C29.5774 75.3164 22.5797 73.2271 16.6217 69.2888C10.6636 65.3501 6.01324 59.7397 3.25946 53.1675C0.5057 46.5953 -0.227612 39.3573 1.1524 32.37C2.53243 25.3825 5.96368 18.96 11.0117 13.9158C16.0597 8.87168 22.4973 5.43265 29.5094 4.0343C36.5216 2.63596 43.7927 3.34119 50.4019 6.06068C57.0111 8.78017 62.6614 13.3916 66.637 19.311C70.6126 25.2304 72.7349 32.1915 72.7349 39.3127C72.7352 48.8335 68.9454 57.9663 62.1965 64.71C55.4478 71.454 46.2896 75.2591 36.7286 75.2917ZM36.7286 6.26159C30.1522 6.24195 23.7176 8.16614 18.2399 11.7905C12.7622 15.4149 8.48783 20.5764 5.95796 26.6214C3.42809 32.6665 2.75655 39.3232 4.02839 45.7488C5.30024 52.1741 8.45823 58.079 13.1025 62.716C17.7468 67.3531 23.6684 70.5132 30.1176 71.7965C36.5667 73.08 43.2533 72.4289 49.3303 69.9255C55.4076 67.4221 60.602 63.1792 64.2561 57.7342C67.9102 52.2889 69.8595 45.8867 69.8569 39.3376C69.8569 30.5804 66.3696 22.1804 60.1593 15.98C53.949 9.77949 45.5228 6.28457 36.7286 6.26159Z" fill="#F8A547"/>
<path d="M0.822207 40.0555C0.727889 40.0555 0.634515 40.0367 0.54753 40.0005C0.460548 39.964 0.3817 39.9109 0.31559 39.8439C0.249483 39.7769 0.197435 39.6975 0.162487 39.6102C0.12754 39.5229 0.110393 39.4297 0.112048 39.3358C0.112246 36.8653 0.358477 34.4009 0.847124 31.9787C0.864923 31.8862 0.901124 31.7982 0.953599 31.7196C1.00608 31.6413 1.07377 31.574 1.1527 31.5219C1.23163 31.47 1.3202 31.4343 1.41322 31.4169C1.50623 31.3994 1.60181 31.4007 1.69433 31.4205C1.78729 31.4382 1.87575 31.4741 1.95452 31.5265C2.03329 31.5786 2.10077 31.6462 2.15301 31.7247C2.20524 31.8033 2.24117 31.8916 2.25868 31.9843C2.27619 32.0767 2.27494 32.172 2.25498 32.2642C1.78078 34.5917 1.54286 36.9608 1.54482 39.3358C1.54482 39.4303 1.52613 39.524 1.48982 39.6113C1.4535 39.6986 1.40028 39.7779 1.33317 39.8447C1.26607 39.9114 1.18641 39.9646 1.09874 40.0008C1.01107 40.0367 0.917102 40.0555 0.822207 40.0555Z" fill="#3E3126"/>
<path d="M36.729 75.8889C28.0655 75.9095 19.6765 72.8646 13.0587 67.2971C6.44083 61.7296 2.02464 54.002 0.597994 45.4928C0.587654 45.398 0.596253 45.3025 0.623296 45.2111C0.650338 45.12 0.695284 45.035 0.755534 44.961C0.815786 44.8874 0.890144 44.826 0.974308 44.7811C1.05847 44.7359 1.15077 44.7079 1.24586 44.6986C1.33853 44.6809 1.43385 44.6822 1.52606 44.7022C1.61826 44.7223 1.70544 44.7605 1.78231 44.8149C1.85917 44.8696 1.92414 44.939 1.97327 45.0193C2.0224 45.0994 2.05468 45.1888 2.06815 45.2817C3.51772 53.6161 7.93888 61.1496 14.5192 66.4978C21.0996 71.8463 29.3973 74.6503 37.8874 74.3949C46.3776 74.1394 54.4897 70.8414 60.7338 65.1072C66.9779 59.3728 70.9342 51.5874 71.8759 43.1812C72.8172 34.775 70.6808 26.3128 65.8592 19.3494C61.0373 12.386 53.8539 7.38929 45.6288 5.27729C37.404 3.16528 28.6898 4.0799 21.0879 7.85307C13.4858 11.6262 7.50645 18.0045 4.24847 25.8159C4.16694 25.9785 4.02662 26.1046 3.8557 26.1682C3.68475 26.2322 3.49589 26.2294 3.32705 26.16C3.15819 26.091 3.0219 25.9608 2.94553 25.7956C2.86915 25.6305 2.85838 25.4427 2.91536 25.27C5.47996 19.1816 9.65493 13.9 14.9956 9.98754C20.3362 6.07513 26.6425 3.67844 33.2427 3.0528C39.8431 2.42713 46.4902 3.59592 52.4762 6.43467C58.4623 9.27342 63.5628 13.6758 67.235 19.173C70.9072 24.6702 73.0132 31.0561 73.3288 37.6512C73.6444 44.246 72.1579 50.8025 69.0275 56.6224C65.8971 62.4426 61.24 67.3081 55.552 70.7009C49.8643 74.0937 43.359 75.8866 36.729 75.8889Z" fill="#3E3126"/>
<path d="M0.747534 43.0603C1.16039 43.0603 1.49507 42.727 1.49507 42.3159C1.49507 41.9049 1.16039 41.5716 0.747534 41.5716C0.334684 41.5716 0 41.9049 0 42.3159C0 42.727 0.334684 43.0603 0.747534 43.0603Z" fill="#3E3126"/>
<path d="M36.7287 68.3711C30.9588 68.3883 25.3137 66.7001 20.5079 63.5207C15.7021 60.341 11.9518 55.8131 9.73189 50.5098C7.51191 45.2065 6.92211 39.3666 8.03716 33.7295C9.15219 28.0921 11.9219 22.9111 15.9957 18.8423C20.0694 14.7735 25.264 11.9998 30.9217 10.8726C36.5792 9.74537 42.4456 10.3152 47.7779 12.5099C53.1101 14.7047 57.6684 18.4257 60.8759 23.2017C64.0832 27.9779 65.7953 33.5942 65.7953 39.3396C65.7953 47.0243 62.7357 54.3953 57.2871 59.8373C51.8387 65.2792 44.4456 68.348 36.7287 68.3711ZM36.7287 13.1866C31.5266 13.1645 26.4347 14.6806 22.0988 17.5428C17.7628 20.4049 14.3775 24.4844 12.3719 29.2642C10.3663 34.044 9.83067 39.3093 10.8328 44.3926C11.835 49.4759 14.3299 54.1483 18.0014 57.8184C21.6729 61.4885 26.3558 63.9906 31.4567 65.0078C36.5575 66.0251 41.8469 65.5119 46.6543 63.5328C51.462 61.5537 55.5714 58.1984 58.4623 53.8913C61.3529 49.5845 62.8948 44.5199 62.8923 39.3396C62.8925 32.4205 60.139 25.7835 55.2352 20.8817C50.3313 15.9799 43.6767 13.2128 36.7287 13.1866Z" fill="#F8A547"/>
<path d="M16.6576 60.2304C16.5817 60.2319 16.5063 60.2186 16.4358 60.1908C16.3652 60.1631 16.3008 60.1218 16.2464 60.0691C12.7642 56.6324 10.2039 52.3806 8.80018 47.7027C7.3965 43.0251 7.19435 38.0712 8.21228 33.2956C9.23023 28.5199 11.4357 24.0751 14.6265 20.3685C17.8172 16.6619 21.8913 13.8121 26.4752 12.0804C26.6142 12.04 26.7635 12.0535 26.8929 12.1182C27.0224 12.1829 27.1224 12.294 27.1729 12.4292C27.2235 12.5644 27.2206 12.7136 27.1652 12.8469C27.1098 12.9801 27.0056 13.0875 26.8738 13.1474C22.4671 14.8096 18.5502 17.5475 15.4828 21.1098C12.4154 24.6721 10.2957 28.9446 9.31841 33.5351C8.34112 38.1257 8.53749 42.8872 9.8895 47.3825C11.2415 51.8778 13.7058 55.9628 17.0563 59.2627C17.1635 59.3697 17.2238 59.5148 17.2238 59.6658C17.2238 59.817 17.1635 59.9621 17.0563 60.0691C17.0038 60.1207 16.9415 60.1616 16.8731 60.1893C16.8047 60.217 16.7314 60.2309 16.6576 60.2304Z" fill="#3E3126"/>
<path d="M36.7287 68.4445C31.4247 68.4543 26.2197 67.0167 21.6782 64.2884C21.5478 64.2109 21.4536 64.0851 21.4162 63.9384C21.3788 63.7921 21.4014 63.6368 21.4789 63.5066C21.559 63.3759 21.6875 63.2819 21.8367 63.2447C21.9859 63.2075 22.1438 63.2303 22.2763 63.3081C25.9853 65.5196 30.1571 66.848 34.4667 67.19C38.7759 67.5318 43.1063 66.8781 47.1201 65.2792C51.1342 63.6807 54.7231 61.1801 57.607 57.9732C60.4909 54.7663 62.5918 50.9394 63.7464 46.7907C64.9008 42.6423 65.0774 38.2843 64.2626 34.0566C63.4476 29.8288 61.6628 25.8458 59.0478 22.4178C56.4328 18.9898 53.0579 16.2097 49.1865 14.2941C45.315 12.3785 41.0516 11.3792 36.7287 11.3742C35.2304 11.3759 33.7349 11.4962 32.2559 11.734C32.1814 11.7464 32.1051 11.744 32.0316 11.727C31.9581 11.71 31.8888 11.6787 31.8274 11.6349C31.766 11.5911 31.714 11.5357 31.674 11.4717C31.6343 11.4078 31.6077 11.3367 31.5956 11.2625C31.583 11.1884 31.5856 11.1125 31.6026 11.0393C31.6196 10.966 31.651 10.8969 31.6951 10.8358C31.739 10.7747 31.7947 10.7228 31.8589 10.6832C31.9231 10.6436 31.9945 10.617 32.069 10.605C33.6106 10.3671 35.1685 10.2469 36.7287 10.2452C44.3778 10.4025 51.6602 13.5387 57.014 18.9811C62.3677 24.4236 65.3662 31.7386 65.3662 39.3573C65.3662 46.9758 62.3677 54.2908 57.014 59.7333C51.6602 65.1758 44.3778 68.312 36.7287 68.4692V68.4445Z" fill="#3E3126"/>
<path d="M29.4529 12.4411C29.8657 12.4411 30.2004 12.1078 30.2004 11.6967C30.2004 11.2856 29.8657 10.9523 29.4529 10.9523C29.0401 10.9523 28.7054 11.2856 28.7054 11.6967C28.7054 12.1078 29.0401 12.4411 29.4529 12.4411Z" fill="#3E3126"/>
<path d="M19.1244 62.7604C19.5372 62.7604 19.8719 62.4272 19.8719 62.0158C19.8719 61.6048 19.5372 61.2715 19.1244 61.2715C18.7115 61.2715 18.3768 61.6048 18.3768 62.0158C18.3768 62.4272 18.7115 62.7604 19.1244 62.7604Z" fill="#3E3126"/>
<path d="M36.7287 68.3711C30.9588 68.3883 25.3137 66.7001 20.5079 63.5207C15.7021 60.341 11.9518 55.8131 9.73189 50.5098C7.51191 45.2065 6.92211 39.3666 8.03716 33.7295C9.15219 28.0921 11.9219 22.9111 15.9957 18.8423C20.0694 14.7735 25.264 11.9998 30.9217 10.8726C36.5792 9.74537 42.4456 10.3152 47.7779 12.5099C53.1101 14.7047 57.6684 18.4257 60.8759 23.2017C64.0832 27.9779 65.7953 33.5942 65.7953 39.3396C65.7953 47.0243 62.7357 54.3953 57.2871 59.8373C51.8387 65.2792 44.4456 68.348 36.7287 68.3711ZM36.7287 13.1866C31.5266 13.1645 26.4347 14.6806 22.0988 17.5428C17.7628 20.4049 14.3775 24.4844 12.3719 29.2642C10.3663 34.044 9.83067 39.3093 10.8328 44.3926C11.835 49.4759 14.3299 54.1483 18.0014 57.8184C21.6729 61.4885 26.3558 63.9906 31.4567 65.0078C36.5575 66.0251 41.8469 65.5119 46.6543 63.5328C51.462 61.5537 55.5714 58.1984 58.4623 53.8913C61.3529 49.5845 62.8948 44.5199 62.8923 39.3396C62.8925 32.4205 60.139 25.7835 55.2352 20.8817C50.3313 15.9799 43.6767 13.2128 36.7287 13.1866Z" fill="#F8A547"/>
<path d="M16.6576 60.2304C16.5817 60.2319 16.5063 60.2186 16.4358 60.1908C16.3652 60.1631 16.3008 60.1218 16.2464 60.0691C12.7642 56.6324 10.2039 52.3806 8.80018 47.7027C7.3965 43.0251 7.19435 38.0712 8.21228 33.2956C9.23023 28.5199 11.4357 24.0751 14.6265 20.3685C17.8172 16.6619 21.8913 13.8121 26.4752 12.0804C26.6142 12.04 26.7635 12.0535 26.8929 12.1182C27.0224 12.1829 27.1224 12.294 27.1729 12.4292C27.2235 12.5644 27.2206 12.7136 27.1652 12.8469C27.1098 12.9801 27.0056 13.0875 26.8738 13.1474C22.4671 14.8096 18.5502 17.5475 15.4828 21.1098C12.4154 24.6721 10.2957 28.9446 9.31841 33.5351C8.34112 38.1257 8.53749 42.8872 9.8895 47.3825C11.2415 51.8778 13.7058 55.9628 17.0563 59.2627C17.1635 59.3697 17.2238 59.5148 17.2238 59.6658C17.2238 59.817 17.1635 59.9621 17.0563 60.0691C17.0038 60.1207 16.9415 60.1616 16.8731 60.1893C16.8047 60.217 16.7314 60.2309 16.6576 60.2304Z" fill="#3E3126"/>
<path d="M36.7287 68.4445C31.4247 68.4543 26.2197 67.0167 21.6782 64.2884C21.5478 64.2109 21.4536 64.0851 21.4162 63.9384C21.3788 63.7921 21.4014 63.6368 21.4789 63.5066C21.559 63.3759 21.6875 63.2819 21.8367 63.2447C21.9859 63.2075 22.1438 63.2303 22.2763 63.3081C25.9853 65.5196 30.1571 66.848 34.4667 67.19C38.7759 67.5318 43.1063 66.8781 47.1201 65.2792C51.1342 63.6807 54.7231 61.1801 57.607 57.9732C60.4909 54.7663 62.5918 50.9394 63.7464 46.7907C64.9008 42.6423 65.0774 38.2843 64.2626 34.0566C63.4476 29.8288 61.6628 25.8458 59.0478 22.4178C56.4328 18.9898 53.0579 16.2097 49.1865 14.2941C45.315 12.3785 41.0516 11.3792 36.7287 11.3742C35.2304 11.3759 33.7349 11.4962 32.2559 11.734C32.1814 11.7464 32.1051 11.744 32.0316 11.727C31.9581 11.71 31.8888 11.6787 31.8274 11.6349C31.766 11.5911 31.714 11.5357 31.674 11.4717C31.6343 11.4078 31.6077 11.3367 31.5956 11.2625C31.583 11.1884 31.5856 11.1125 31.6026 11.0393C31.6196 10.966 31.651 10.8969 31.6951 10.8358C31.739 10.7747 31.7947 10.7228 31.8589 10.6832C31.9231 10.6436 31.9945 10.617 32.069 10.605C33.6106 10.3671 35.1685 10.2469 36.7287 10.2452C44.3778 10.4025 51.6602 13.5387 57.014 18.9811C62.3677 24.4236 65.3662 31.7386 65.3662 39.3573C65.3662 46.9758 62.3677 54.2908 57.014 59.7333C51.6602 65.1758 44.3778 68.312 36.7287 68.4692V68.4445Z" fill="#3E3126"/>
<path d="M29.4529 12.4411C29.8657 12.4411 30.2004 12.1078 30.2004 11.6967C30.2004 11.2856 29.8657 10.9523 29.4529 10.9523C29.0401 10.9523 28.7054 11.2856 28.7054 11.6967C28.7054 12.1078 29.0401 12.4411 29.4529 12.4411Z" fill="#3E3126"/>
<path d="M19.1244 62.7604C19.5372 62.7604 19.8719 62.4272 19.8719 62.0158C19.8719 61.6048 19.5372 61.2715 19.1244 61.2715C18.7115 61.2715 18.3768 61.6048 18.3768 62.0158C18.3768 62.4272 18.7115 62.7604 19.1244 62.7604Z" fill="#3E3126"/>
<path d="M2.41685 29.389C2.82969 29.389 3.16439 29.0557 3.16439 28.6447C3.16439 28.2336 2.82969 27.9003 2.41685 27.9003C2.004 27.9003 1.66931 28.2336 1.66931 28.6447C1.66931 29.0557 2.004 29.389 2.41685 29.389Z" fill="#3E3126"/>
<path d="M20.1771 13.9778C20.7811 13.4687 21.0184 12.7592 20.7072 12.3931C20.3959 12.027 19.6541 12.143 19.0501 12.6521C18.4462 13.1613 18.2089 13.8708 18.5201 14.2368C18.8313 14.6029 19.5732 14.4869 20.1771 13.9778Z" fill="white"/>
<path d="M10.6272 22.8606C10.4957 22.8633 10.3662 22.8288 10.2535 22.7613C10.0921 22.6591 9.97707 22.4982 9.93285 22.3129C9.88866 22.1276 9.91875 21.9324 10.0167 21.7688C11.8109 19.1032 14.0041 16.7267 16.5203 14.7219C16.5921 14.65 16.6783 14.5941 16.7733 14.5577C16.8683 14.5213 16.97 14.5054 17.0716 14.5108C17.1733 14.5163 17.2726 14.5431 17.3631 14.5894C17.4536 14.6358 17.5333 14.7007 17.5969 14.7798C17.6605 14.859 17.7065 14.9506 17.7321 15.0487C17.7576 15.1468 17.7621 15.2492 17.7451 15.3492C17.7282 15.4491 17.6902 15.5444 17.6337 15.6287C17.5772 15.713 17.5035 15.7845 17.4173 15.8385C15.0162 17.7414 12.9235 20.001 11.2128 22.538C11.1493 22.6356 11.0627 22.716 10.9606 22.7723C10.8584 22.8286 10.7439 22.8589 10.6272 22.8606Z" fill="white"/>
<path opacity="0.4" d="M47.3442 55.2537C47.6951 55.2537 47.9795 54.9702 47.9795 54.6207C47.9795 54.2713 47.6951 53.9881 47.3442 53.9881C46.9933 53.9881 46.7089 54.2713 46.7089 54.6207C46.7089 54.9702 46.9933 55.2537 47.3442 55.2537Z" fill="#F8A547"/>
<path d="M47.7302 64.3115C48.9482 64.3115 49.9355 63.3284 49.9355 62.1155C49.9355 60.9028 48.9482 59.9197 47.7302 59.9197C46.5122 59.9197 45.5249 60.9028 45.5249 62.1155C45.5249 63.3284 46.5122 64.3115 47.7302 64.3115Z" fill="#F8A547"/>
<path d="M49.2002 58.1712C49.6063 58.1712 49.9353 57.8433 49.9353 57.4392C49.9353 57.0348 49.6063 56.7072 49.2002 56.7072C48.7943 56.7072 48.4651 57.0348 48.4651 57.4392C48.4651 57.8433 48.7943 58.1712 49.2002 58.1712Z" fill="#F8A547"/>
<path d="M42.6221 63.8268C43.0279 63.8268 43.3572 63.4991 43.3572 63.0947C43.3572 62.6906 43.0279 62.3627 42.6221 62.3627C42.216 62.3627 41.887 62.6906 41.887 63.0947C41.887 63.4991 42.216 63.8268 42.6221 63.8268Z" fill="#F8A547"/>
<path d="M53.2121 60.6889C53.7144 60.6889 54.1216 60.2835 54.1216 59.7831C54.1216 59.2829 53.7144 58.8775 53.2121 58.8775C52.7096 58.8775 52.3025 59.2829 52.3025 59.7831C52.3025 60.2835 52.7096 60.6889 53.2121 60.6889Z" fill="#F8A547"/>
<path opacity="0.4" d="M43.2203 60.9765C43.5712 60.9765 43.8556 60.6933 43.8556 60.3439C43.8556 59.9942 43.5712 59.711 43.2203 59.711C42.8694 59.711 42.5847 59.9942 42.5847 60.3439C42.5847 60.6933 42.8694 60.9765 43.2203 60.9765Z" fill="#F8A547"/>
<path opacity="0.4" d="M45.1388 59.1505C45.5034 59.1505 45.7992 58.8562 45.7992 58.4929C45.7992 58.1298 45.5034 57.8353 45.1388 57.8353C44.7743 57.8353 44.4785 58.1298 44.4785 58.4929C44.4785 58.8562 44.7743 59.1505 45.1388 59.1505Z" fill="#F8A547"/>
<path opacity="0.4" d="M45.0762 56.0108C45.2139 56.0108 45.3256 55.8999 45.3256 55.7628C45.3256 55.6257 45.2139 55.5145 45.0762 55.5145C44.9388 55.5145 44.8271 55.6257 44.8271 55.7628C44.8271 55.8999 44.9388 56.0108 45.0762 56.0108Z" fill="#F8A547"/>
<path d="M45.9606 72.5234C46.6831 72.5234 47.2689 71.9403 47.2689 71.2208C47.2689 70.5014 46.6831 69.9181 45.9606 69.9181C45.2381 69.9181 44.6526 70.5014 44.6526 71.2208C44.6526 71.9403 45.2381 72.5234 45.9606 72.5234Z" fill="#F8A547"/>
<path d="M46.8576 69.4246C47.0985 69.4246 47.2936 69.2302 47.2936 68.9904C47.2936 68.7506 47.0985 68.556 46.8576 68.556C46.6168 68.556 46.4216 68.7506 46.4216 68.9904C46.4216 69.2302 46.6168 69.4246 46.8576 69.4246Z" fill="#F8A547"/>
<path d="M42.946 72.7873C43.1868 72.7873 43.382 72.593 43.382 72.3531C43.382 72.1133 43.1868 71.919 42.946 71.919C42.7052 71.919 42.51 72.1133 42.51 72.3531C42.51 72.593 42.7052 72.7873 42.946 72.7873Z" fill="#F8A547"/>
<path d="M49.2501 70.9117C49.5461 70.9117 49.7859 70.6729 49.7859 70.3784C49.7859 70.0837 49.5461 69.8449 49.2501 69.8449C48.9544 69.8449 48.7144 70.0837 48.7144 70.3784C48.7144 70.6729 48.9544 70.9117 49.2501 70.9117Z" fill="#F8A547"/>
<path opacity="0.4" d="M43.2949 71.0837C43.5014 71.0837 43.6687 70.9171 43.6687 70.7114C43.6687 70.506 43.5014 70.3394 43.2949 70.3394C43.0886 70.3394 42.9213 70.506 42.9213 70.7114C42.9213 70.9171 43.0886 71.0837 43.2949 71.0837Z" fill="#F8A547"/>
<path opacity="0.4" d="M44.4412 70.0041C44.6612 70.0041 44.8399 69.8261 44.8399 69.6071C44.8399 69.3879 44.6612 69.2099 44.4412 69.2099C44.221 69.2099 44.0424 69.3879 44.0424 69.6071C44.0424 69.8261 44.221 70.0041 44.4412 70.0041Z" fill="#F8A547"/>
<path opacity="0.4" d="M44.4036 68.1457C44.4861 68.1457 44.5531 68.0792 44.5531 67.9967C44.5531 67.9146 44.4861 67.8481 44.4036 67.8481C44.3211 67.8481 44.254 67.9146 44.254 67.9967C44.254 68.0792 44.3211 68.1457 44.4036 68.1457Z" fill="#F8A547"/>
<path d="M38.0867 66.2724C38.5341 66.2724 38.8966 65.9114 38.8966 65.4659C38.8966 65.0207 38.5341 64.6597 38.0867 64.6597C37.6396 64.6597 37.2771 65.0207 37.2771 65.4659C37.2771 65.9114 37.6396 66.2724 38.0867 66.2724Z" fill="#F8A547"/>
<path d="M24.5671 23.7854C25.8653 21.9257 25.8932 19.7088 24.6293 18.834C23.3654 17.9591 21.2884 18.7575 19.9902 20.6173C18.692 22.4771 18.6642 24.6939 19.928 25.5688C21.1919 26.4437 23.2689 25.6452 24.5671 23.7854Z" fill="#FFEFAE"/>
<path d="M45.4749 42.3868C45.0796 41.5128 44.5217 40.7212 43.8301 40.0544C43.1525 39.4174 42.3945 38.871 41.5751 38.4292C40.7954 38.0353 39.9876 37.6995 39.1581 37.4242C38.0618 37.0024 37.0276 36.5805 36.0684 36.1836C35.2018 35.8287 34.4046 35.325 33.7135 34.6946C33.4108 34.4086 33.1731 34.0612 33.0164 33.6761C32.8593 33.2909 32.7871 32.8768 32.8041 32.4616C32.7864 31.8567 32.9282 31.2579 33.2151 30.7247C33.5032 30.2319 33.9389 29.8414 34.461 29.608C35.1776 29.323 35.9452 29.1877 36.7161 29.2111C37.5293 29.1903 38.332 29.3967 39.0336 29.8065C39.6957 30.2063 40.2751 30.7285 40.7405 31.345C41.2151 32.0069 41.6321 32.7084 41.9863 33.4417L45.749 31.221C45.2671 30.2078 44.6374 29.2712 43.8802 28.4418C43.0378 27.5298 42.0268 26.7886 40.9024 26.2581C40.1812 25.9074 39.4136 25.6608 38.6223 25.5262V21.1343H34.8847L34.9721 25.489C34.0059 25.6221 33.0653 25.8981 32.1812 26.3079C30.959 26.8589 29.8993 27.7134 29.1039 28.7892C28.3665 29.7978 27.9735 31.0153 27.9825 32.2629C27.9477 33.416 28.1911 34.5606 28.6926 35.6005C29.1413 36.4811 29.7544 37.2684 30.4993 37.9205C31.2037 38.5442 31.9868 39.0739 32.8289 39.496C33.5614 39.858 34.3143 40.1772 35.084 40.4514C36.1305 40.8483 37.115 41.2579 38.0494 41.692C38.9031 42.0836 39.673 42.6354 40.3168 43.3173C40.9204 44.0008 41.2371 44.8892 41.2015 45.7986C41.2208 46.499 41.0669 47.1936 40.7528 47.8208C40.4445 48.3723 39.9631 48.808 39.3824 49.0615C38.644 49.3788 37.8436 49.527 37.0402 49.4956C36.0516 49.5154 35.0742 49.2848 34.1996 48.8258C33.3273 48.3451 32.5607 47.6955 31.9445 46.9152C31.2024 45.9727 30.5713 44.9487 30.0631 43.8632L26.5374 46.2328C27.1046 47.6059 27.9147 48.8666 28.9293 49.9547C29.9406 51.0403 31.1496 51.9246 32.4927 52.5603C33.2871 52.9236 34.1243 53.1863 34.9844 53.3419L34.8847 57.5475H38.6223L38.5478 53.4535C39.6972 53.3578 40.8222 53.0684 41.8742 52.5975C43.169 52.0042 44.2574 51.0413 45.0013 49.8307C45.7516 48.5664 46.1314 47.1181 46.0978 45.6497C46.1288 44.53 45.9163 43.4169 45.4749 42.3868Z" fill="white"/>
<path d="M57.8216 31.8079C66.4708 31.8079 73.4825 24.8036 73.4825 16.1632C73.4825 7.5229 66.4708 0.518524 57.8216 0.518524C49.1723 0.518524 42.1609 7.5229 42.1609 16.1632C42.1609 24.8036 49.1723 31.8079 57.8216 31.8079Z" fill="#FBD947"/>
<path d="M57.6099 0.528564C57.5101 6.14875 55.8282 18.5677 43.1701 21.6942C42.5018 19.9253 42.1599 18.0508 42.1609 16.1609C42.1766 15.4622 42.2431 14.7656 42.3602 14.0765C42.78 10.8825 44.1826 7.89618 46.3755 5.52804C48.5685 3.15987 51.4441 1.52609 54.6073 0.851136C55.5946 0.642459 56.6007 0.53438 57.6099 0.528564Z" fill="#FBE481"/>
<path opacity="0.5" d="M73.2086 15.9777C73.2117 18.029 72.8092 20.0607 72.0241 21.9571C71.2387 23.8534 70.0861 25.5772 68.6319 27.0299C67.1777 28.4827 65.4502 29.636 63.5484 30.424C61.6465 31.212 59.6075 31.6192 57.5477 31.6225C55.6391 31.6272 53.7463 31.278 51.9659 30.5927C65.048 25.7789 68.0629 14.4641 67.4025 3.81927C69.2175 5.28828 70.6805 7.14201 71.685 9.24537C72.6893 11.3487 73.2099 13.6487 73.2086 15.9777Z" fill="#F8A547"/>
<path d="M50.6092 5.08582C50.8717 4.86447 50.9763 4.55783 50.843 4.40095C50.7097 4.24407 50.3887 4.29632 50.126 4.5177C49.8635 4.73905 49.7588 5.04569 49.8921 5.20257C50.0254 5.35945 50.3464 5.3072 50.6092 5.08582Z" fill="white"/>
<path d="M47.9671 13.2097C47.9294 13.191 47.8998 13.1593 47.8838 13.1205C47.8678 13.0817 47.8663 13.0385 47.8797 12.9988L48.7643 10.9021C48.7726 10.8825 48.7844 10.8648 48.7996 10.8498C48.8146 10.8349 48.8326 10.823 48.8522 10.815C48.8718 10.8069 48.893 10.8028 48.9141 10.8028C48.9355 10.8029 48.9567 10.8071 48.9763 10.8152C49.0139 10.834 49.0433 10.8657 49.0595 10.9044C49.0755 10.9432 49.0768 10.9864 49.0634 11.0262L48.1664 13.1229C48.1612 13.1432 48.1517 13.1621 48.138 13.1781C48.1246 13.1942 48.1076 13.2069 48.0883 13.2153C48.0689 13.2237 48.048 13.2276 48.0269 13.2266C48.006 13.2256 47.9854 13.2198 47.9671 13.2097Z" fill="#3E3126"/>
<path d="M49.1507 12.2045H49.0883C49.0674 12.1979 49.0483 12.1869 49.0323 12.1722C49.0163 12.1575 49.0037 12.1394 48.9952 12.1193C48.9869 12.0992 48.9833 12.0775 48.9841 12.0558C48.9851 12.0341 48.9911 12.0129 49.0011 11.9936L49.4745 10.877C49.491 10.8375 49.5227 10.8062 49.5624 10.7899C49.6022 10.7736 49.6468 10.7737 49.6865 10.7902C49.7259 10.8066 49.7574 10.8381 49.7739 10.8776C49.7901 10.9172 49.7901 10.9616 49.7736 11.0011L49.3002 12.1177C49.285 12.1439 49.2631 12.1656 49.2371 12.1809C49.2108 12.1961 49.1808 12.2043 49.1507 12.2045Z" fill="#3E3126"/>
<path d="M57.8221 31.8431C54.7048 31.8554 51.654 30.9462 49.056 29.2306C46.458 27.5147 44.4299 25.0699 43.2286 22.2055C42.0271 19.3411 41.7063 16.1861 42.3068 13.14C42.9073 10.094 44.4023 7.29391 46.6022 5.09455C48.8021 2.89518 51.6081 1.39545 54.6646 0.785316C57.721 0.175182 60.8906 0.482092 63.772 1.66718C66.6531 2.85225 69.1162 4.86219 70.8494 7.44239C72.5826 10.0226 73.508 13.057 73.508 16.1612C73.508 20.3096 71.8573 24.289 68.9174 27.2281C65.9776 30.1672 61.988 31.8267 57.8221 31.8431ZM57.8221 1.73237C54.9544 1.72254 52.1481 2.56042 49.7587 4.13991C47.3693 5.7194 45.5043 7.96941 44.4 10.6051C43.2956 13.2407 43.0015 16.1434 43.555 18.9456C44.1084 21.7478 45.4844 24.3234 47.509 26.3462C49.5333 28.3692 52.1151 29.7482 54.9271 30.3092C57.7393 30.87 60.6552 30.587 63.3058 29.4963C65.9564 28.4059 68.2223 26.5565 69.8165 24.1826C71.411 21.8087 72.2621 19.0171 72.2621 16.1612C72.2655 12.342 70.7466 8.6776 68.0395 5.97238C65.3322 3.26714 61.6574 1.74223 57.8221 1.73237Z" fill="#F8A547"/>
<path d="M42.1608 16.4712C42.0783 16.4712 41.9992 16.4385 41.9406 16.3804C41.8821 16.3222 41.8494 16.2433 41.8494 16.1611C41.845 15.0816 41.9535 14.0047 42.1735 12.9477C42.1791 12.9071 42.1936 12.8681 42.2152 12.8333C42.2369 12.7984 42.2655 12.7683 42.2996 12.7451C42.3336 12.7217 42.3718 12.7057 42.4122 12.6979C42.4527 12.69 42.4945 12.6907 42.5347 12.6996C42.576 12.707 42.6154 12.7226 42.6505 12.7455C42.6855 12.7684 42.7157 12.7981 42.7389 12.8329C42.7621 12.8676 42.7781 12.9067 42.7858 12.9478C42.7936 12.9888 42.7928 13.031 42.7838 13.0718C42.5736 14.0882 42.4692 15.1234 42.4723 16.1611C42.4723 16.2433 42.4396 16.3222 42.381 16.3804C42.3228 16.4385 42.2436 16.4712 42.1608 16.4712Z" fill="#3E3126"/>
<path d="M57.8217 32.1168C54.0387 32.1222 50.3769 30.7873 47.4916 28.3507C44.6067 25.9138 42.686 22.5345 42.0736 18.8169C42.0615 18.7748 42.0584 18.7306 42.0646 18.6872C42.0708 18.6438 42.0863 18.6022 42.1098 18.5652C42.1335 18.5282 42.1647 18.4965 42.2013 18.4724C42.2379 18.4482 42.2794 18.432 42.323 18.425C42.3663 18.4179 42.4106 18.4201 42.4532 18.4314C42.4957 18.4427 42.5354 18.4628 42.5695 18.4905C42.6038 18.5181 42.6316 18.5527 42.6515 18.5918C42.6711 18.631 42.6824 18.6739 42.6842 18.7177C43.3231 22.3605 45.2613 25.6512 48.1424 27.9843C51.0235 30.3174 54.6539 31.5363 58.3655 31.4166C62.0771 31.2967 65.6204 29.8463 68.3439 27.3324C71.0672 24.8182 72.7873 21.4095 73.1879 17.7331C73.5884 14.0567 72.6426 10.3599 70.5239 7.32269C68.4055 4.28546 65.2571 2.11209 61.6576 1.20234C58.0582 0.292587 54.2499 0.707642 50.9333 2.37116C47.6167 4.03466 45.0148 6.83477 43.6062 10.2564C43.5732 10.3323 43.5119 10.3928 43.4356 10.4251C43.359 10.4574 43.2729 10.4592 43.195 10.4301C43.1187 10.3972 43.0581 10.3363 43.0256 10.2601C42.9931 10.1839 42.9913 10.0982 43.0207 10.0207C44.14 7.36575 45.9608 5.06254 48.2897 3.35603C50.6187 1.64951 53.3686 0.603483 56.2471 0.329204C59.1254 0.0549245 62.0245 0.562646 64.6362 1.79837C67.2481 3.03408 69.4745 4.95162 71.0791 7.34698C72.6836 9.74236 73.6062 12.526 73.7487 15.4019C73.8911 18.2778 73.2483 21.1383 71.8882 23.6793C70.5281 26.2204 68.502 28.3468 66.0252 29.8324C63.5483 31.3183 60.7134 32.1075 57.8217 32.1168Z" fill="#3E3126"/>
<path d="M42.1234 17.7767C42.3021 17.7767 42.4473 17.6322 42.4473 17.4541C42.4473 17.2759 42.3021 17.1315 42.1234 17.1315C41.9445 17.1315 41.7993 17.2759 41.7993 17.4541C41.7993 17.6322 41.9445 17.7767 42.1234 17.7767Z" fill="#3E3126"/>
<path d="M57.8218 28.8185C55.3037 28.8259 52.84 28.0888 50.743 26.701C48.646 25.313 47.0098 23.3365 46.0416 21.0218C45.0734 18.7072 44.8168 16.1584 45.3047 13.6985C45.7922 11.2385 47.002 8.97796 48.7806 7.2032C50.5594 5.42842 52.8271 4.21928 55.2965 3.7289C57.7658 3.23852 60.3259 3.48896 62.6521 4.44848C64.9786 5.40804 66.9666 7.03351 68.3646 9.11904C69.7623 11.2046 70.5072 13.6563 70.5049 16.1638C70.5049 19.5157 69.1695 22.7307 66.7915 25.1032C64.4137 27.4757 61.1878 28.8118 57.8218 28.8185ZM57.8218 4.74971C55.553 4.74234 53.3333 5.40549 51.4436 6.65521C49.5536 7.90489 48.0788 9.68496 47.2055 11.7699C46.3322 13.8549 46.0998 16.1511 46.5379 18.3676C46.976 20.5842 48.0646 22.6214 49.666 24.2215C51.2677 25.8215 53.3098 26.9123 55.5345 27.3558C57.7588 27.7992 60.0655 27.5753 62.162 26.7126C64.2587 25.8496 66.051 24.3867 67.3121 22.5089C68.5734 20.6311 69.2466 18.4228 69.2466 16.1638C69.2497 13.142 68.0484 10.2425 65.9061 8.10231C63.7639 5.96212 60.8563 4.75629 57.8218 4.74971Z" fill="#F8A547"/>
<path d="M49.0632 25.2787C48.9975 25.2777 48.9348 25.251 48.8887 25.2042C47.6939 24.0194 46.7478 22.6094 46.1061 21.0565C45.4643 19.5036 45.1397 17.839 45.151 16.1598C45.157 13.5788 45.9483 11.0603 47.4208 8.93622C48.8931 6.81217 50.9774 5.18241 53.3988 4.26191C53.43 4.25007 53.463 4.24453 53.4963 4.24566C53.5295 4.24676 53.5623 4.25446 53.5925 4.26836C53.6226 4.28222 53.6497 4.30196 53.6721 4.32643C53.6946 4.3509 53.7118 4.37958 53.7229 4.41078C53.7436 4.4734 53.7397 4.54152 53.7118 4.60137C53.684 4.66124 53.6345 4.70838 53.5734 4.73334C51.6517 5.4585 49.9438 6.65252 48.6064 8.20587C47.2687 9.75923 46.3441 11.6222 45.9176 13.6239C45.4909 15.6256 45.576 17.7019 46.1649 19.6623C46.7535 21.6228 47.8274 23.4046 49.2876 24.8444C49.334 24.8929 49.3598 24.9573 49.3598 25.0243C49.3598 25.0913 49.334 25.1557 49.2876 25.2042C49.2592 25.2341 49.2239 25.2566 49.1847 25.2696C49.1455 25.2826 49.1037 25.2857 49.0632 25.2787Z" fill="#3E3126"/>
<path d="M57.822 28.8683C55.5074 28.8678 53.2369 28.2369 51.2561 27.0446C51.2275 27.0292 51.2023 27.0079 51.1819 26.9824C51.1618 26.9568 51.1473 26.9275 51.1391 26.8959C51.1308 26.8646 51.1293 26.8317 51.1344 26.7996C51.1396 26.7675 51.1512 26.737 51.169 26.7095C51.1858 26.6805 51.2079 26.6551 51.2347 26.635C51.2616 26.6148 51.2922 26.6001 51.3247 26.5919C51.3575 26.5839 51.3913 26.5824 51.4245 26.5878C51.4575 26.5929 51.4895 26.6047 51.5179 26.6227C53.1368 27.5766 54.9549 28.1463 56.8306 28.2875C58.7064 28.4287 60.5897 28.1378 62.3345 27.4371C64.0793 26.7365 65.6382 25.6451 66.891 24.2475C68.1436 22.85 69.0561 21.1838 69.5579 19.3783C70.0594 17.5729 70.1365 15.6766 69.7835 13.8366C69.4302 11.9966 68.6559 10.2624 67.5209 8.76847C66.3859 7.27453 64.9206 6.06102 63.2387 5.22212C61.5566 4.38319 59.7032 3.94141 57.822 3.93102C57.1671 3.93027 56.5132 3.98006 55.8661 4.07991C55.808 4.09585 55.7464 4.08938 55.6933 4.06173C55.6399 4.0341 55.5995 3.98737 55.5793 3.93102C55.5742 3.89838 55.5755 3.86503 55.5832 3.83291C55.5912 3.80079 55.6054 3.77054 55.625 3.74397C55.6448 3.71739 55.6696 3.695 55.6982 3.67811C55.7266 3.66124 55.7583 3.6502 55.7913 3.64566C56.4624 3.53556 57.1419 3.48159 57.822 3.48439C61.2057 3.48439 64.4506 4.82286 66.8433 7.20541C69.2358 9.58793 70.5799 12.8193 70.5799 16.1887C70.5799 19.5581 69.2358 22.7895 66.8433 25.172C64.4506 27.5545 61.2057 28.893 57.822 28.893V28.8683Z" fill="#3E3126"/>
<path d="M54.6449 4.41024C54.8238 4.41024 54.9687 4.26582 54.9687 4.08768C54.9687 3.90952 54.8238 3.76509 54.6449 3.76509C54.466 3.76509 54.321 3.90952 54.321 4.08768C54.321 4.26582 54.466 4.41024 54.6449 4.41024Z" fill="#3E3126"/>
<path d="M50.1345 26.3739C50.3135 26.3739 50.4586 26.2296 50.4586 26.0514C50.4586 25.8732 50.3135 25.7288 50.1345 25.7288C49.9558 25.7288 49.8107 25.8732 49.8107 26.0514C49.8107 26.2296 49.9558 26.3739 50.1345 26.3739Z" fill="#3E3126"/>
<path d="M57.8218 28.8185C55.3037 28.8259 52.84 28.0888 50.743 26.701C48.646 25.313 47.0098 23.3365 46.0416 21.0218C45.0734 18.7072 44.8168 16.1584 45.3047 13.6985C45.7922 11.2385 47.002 8.97796 48.7806 7.2032C50.5594 5.42842 52.8271 4.21928 55.2965 3.7289C57.7658 3.23852 60.3259 3.48896 62.6521 4.44848C64.9786 5.40804 66.9666 7.03351 68.3646 9.11904C69.7623 11.2046 70.5072 13.6563 70.5049 16.1638C70.5049 19.5157 69.1695 22.7307 66.7915 25.1032C64.4137 27.4757 61.1878 28.8118 57.8218 28.8185ZM57.8218 4.74971C55.553 4.74234 53.3333 5.40549 51.4436 6.65521C49.5536 7.90489 48.0788 9.68496 47.2055 11.7699C46.3322 13.8549 46.0998 16.1511 46.5379 18.3676C46.976 20.5842 48.0646 22.6214 49.666 24.2215C51.2677 25.8215 53.3098 26.9123 55.5345 27.3558C57.7588 27.7992 60.0655 27.5753 62.162 26.7126C64.2587 25.8496 66.051 24.3867 67.3121 22.5089C68.5734 20.6311 69.2466 18.4228 69.2466 16.1638C69.2497 13.142 68.0484 10.2425 65.9061 8.10231C63.7639 5.96212 60.8563 4.75629 57.8218 4.74971Z" fill="#F8A547"/>
<path d="M49.0632 25.2787C48.9975 25.2777 48.9348 25.251 48.8887 25.2042C47.6939 24.0194 46.7478 22.6094 46.1061 21.0565C45.4643 19.5036 45.1397 17.839 45.151 16.1598C45.157 13.5788 45.9483 11.0603 47.4208 8.93622C48.8931 6.81217 50.9774 5.18241 53.3988 4.26191C53.43 4.25007 53.463 4.24453 53.4963 4.24566C53.5295 4.24676 53.5623 4.25446 53.5925 4.26836C53.6226 4.28222 53.6497 4.30196 53.6721 4.32643C53.6946 4.3509 53.7118 4.37958 53.7229 4.41078C53.7436 4.4734 53.7397 4.54152 53.7118 4.60137C53.684 4.66124 53.6345 4.70838 53.5734 4.73334C51.6517 5.4585 49.9438 6.65252 48.6064 8.20587C47.2687 9.75923 46.3441 11.6222 45.9176 13.6239C45.4909 15.6256 45.576 17.7019 46.1649 19.6623C46.7535 21.6228 47.8274 23.4046 49.2876 24.8444C49.334 24.8929 49.3598 24.9573 49.3598 25.0243C49.3598 25.0913 49.334 25.1557 49.2876 25.2042C49.2592 25.2341 49.2239 25.2566 49.1847 25.2696C49.1455 25.2826 49.1037 25.2857 49.0632 25.2787Z" fill="#3E3126"/>
<path d="M57.822 28.8683C55.5074 28.8678 53.2369 28.2369 51.2561 27.0446C51.2275 27.0292 51.2023 27.0079 51.1819 26.9824C51.1618 26.9568 51.1473 26.9275 51.1391 26.8959C51.1308 26.8646 51.1293 26.8317 51.1344 26.7996C51.1396 26.7675 51.1512 26.737 51.169 26.7095C51.1858 26.6805 51.2079 26.6551 51.2347 26.635C51.2616 26.6148 51.2922 26.6001 51.3247 26.5919C51.3575 26.5839 51.3913 26.5824 51.4245 26.5878C51.4575 26.5929 51.4895 26.6047 51.5179 26.6227C53.1368 27.5766 54.9549 28.1463 56.8306 28.2875C58.7064 28.4287 60.5897 28.1378 62.3345 27.4371C64.0793 26.7365 65.6382 25.6451 66.891 24.2475C68.1436 22.85 69.0561 21.1838 69.5579 19.3783C70.0594 17.5729 70.1365 15.6766 69.7835 13.8366C69.4302 11.9966 68.6559 10.2624 67.5209 8.76847C66.3859 7.27453 64.9206 6.06102 63.2387 5.22212C61.5566 4.38319 59.7032 3.94141 57.822 3.93102C57.1671 3.93027 56.5132 3.98006 55.8661 4.07991C55.808 4.09585 55.7464 4.08938 55.6933 4.06173C55.6399 4.0341 55.5995 3.98737 55.5793 3.93102C55.5742 3.89838 55.5755 3.86503 55.5832 3.83291C55.5912 3.80079 55.6054 3.77054 55.625 3.74397C55.6448 3.71739 55.6696 3.695 55.6982 3.67811C55.7266 3.66124 55.7583 3.6502 55.7913 3.64566C56.4624 3.53556 57.1419 3.48159 57.822 3.48439C61.2057 3.48439 64.4506 4.82286 66.8433 7.20541C69.2358 9.58793 70.5799 12.8193 70.5799 16.1887C70.5799 19.5581 69.2358 22.7895 66.8433 25.172C64.4506 27.5545 61.2057 28.893 57.822 28.893V28.8683Z" fill="#3E3126"/>
<path d="M54.6449 4.41024C54.8238 4.41024 54.9687 4.26582 54.9687 4.08768C54.9687 3.90952 54.8238 3.76509 54.6449 3.76509C54.466 3.76509 54.321 3.90952 54.321 4.08768C54.321 4.26582 54.466 4.41024 54.6449 4.41024Z" fill="#3E3126"/>
<path d="M50.1345 26.3739C50.3135 26.3739 50.4586 26.2296 50.4586 26.0514C50.4586 25.8732 50.3135 25.7288 50.1345 25.7288C49.9558 25.7288 49.8107 25.8732 49.8107 26.0514C49.8107 26.2296 49.9558 26.3739 50.1345 26.3739Z" fill="#3E3126"/>
<path d="M42.8588 11.806C43.0377 11.806 43.1829 11.6616 43.1829 11.4835C43.1829 11.3053 43.0377 11.1609 42.8588 11.1609C42.6798 11.1609 42.5349 11.3053 42.5349 11.4835C42.5349 11.6616 42.6798 11.806 42.8588 11.806Z" fill="#3E3126"/>
<path d="M46.4343 8.96378C46.381 8.97518 46.3258 8.97518 46.2724 8.96378C46.2366 8.94224 46.2056 8.91379 46.1814 8.8801C46.1569 8.84641 46.1396 8.80818 46.1303 8.76769C46.1208 8.72718 46.1198 8.68522 46.1272 8.64432C46.1345 8.60342 46.1499 8.56439 46.1726 8.52955C46.9469 7.35137 47.9012 6.30072 49.0009 5.4155C49.0612 5.35789 49.1416 5.32571 49.2252 5.32571C49.3087 5.32571 49.3892 5.35789 49.4495 5.4155C49.5065 5.47348 49.5385 5.55143 49.5385 5.63262C49.5385 5.7138 49.5065 5.79175 49.4495 5.84973C48.3751 6.70696 47.4492 7.73379 46.7084 8.88934C46.671 8.92093 46.6269 8.94393 46.5798 8.95679C46.5323 8.96966 46.4828 8.97205 46.4343 8.96378Z" fill="white"/>
<path opacity="0.4" d="M62.4567 23.0954C62.6081 23.0954 62.7308 22.9731 62.7308 22.8224C62.7308 22.6717 62.6081 22.5495 62.4567 22.5495C62.3053 22.5495 62.1826 22.6717 62.1826 22.8224C62.1826 22.9731 62.3053 23.0954 62.4567 23.0954Z" fill="#F8A547"/>
<path d="M62.6188 27.0538C63.1484 27.0538 63.578 26.626 63.578 26.0984C63.578 25.5708 63.1484 25.1431 62.6188 25.1431C62.089 25.1431 61.6594 25.5708 61.6594 26.0984C61.6594 26.626 62.089 27.0538 62.6188 27.0538Z" fill="#F8A547"/>
<path d="M63.2664 24.3771C63.4453 24.3771 63.5905 24.2327 63.5905 24.0545C63.5905 23.8764 63.4453 23.7319 63.2664 23.7319C63.0877 23.7319 62.9425 23.8764 62.9425 24.0545C62.9425 24.2327 63.0877 24.3771 63.2664 24.3771Z" fill="#F8A547"/>
<path d="M60.4013 26.8443C60.5799 26.8443 60.7251 26.7 60.7251 26.5218C60.7251 26.3436 60.5799 26.1993 60.4013 26.1993C60.2223 26.1993 60.0771 26.3436 60.0771 26.5218C60.0771 26.7 60.2223 26.8443 60.4013 26.8443Z" fill="#F8A547"/>
<path d="M65.0103 25.4808C65.2305 25.4808 65.4092 25.303 65.4092 25.0838C65.4092 24.8645 65.2305 24.6868 65.0103 24.6868C64.7901 24.6868 64.6117 24.8645 64.6117 25.0838C64.6117 25.303 64.7901 25.4808 65.0103 25.4808Z" fill="#F8A547"/>
<path opacity="0.4" d="M60.6501 25.5917C60.8014 25.5917 60.9241 25.4695 60.9241 25.3188C60.9241 25.168 60.8014 25.0458 60.6501 25.0458C60.4987 25.0458 60.376 25.168 60.376 25.3188C60.376 25.4695 60.4987 25.5917 60.6501 25.5917Z" fill="#F8A547"/>
<path opacity="0.4" d="M61.497 24.7971C61.6553 24.7971 61.7835 24.6694 61.7835 24.5118C61.7835 24.3542 61.6553 24.2264 61.497 24.2264C61.3387 24.2264 61.2106 24.3542 61.2106 24.5118C61.2106 24.6694 61.3387 24.7971 61.497 24.7971Z" fill="#F8A547"/>
<path opacity="0.4" d="M61.4602 23.4468C61.5221 23.4468 61.5723 23.3968 61.5723 23.3351C61.5723 23.2734 61.5221 23.2234 61.4602 23.2234C61.3983 23.2234 61.348 23.2734 61.348 23.3351C61.348 23.3968 61.3983 23.4468 61.4602 23.4468Z" fill="#F8A547"/>
<path d="M61.8464 30.6415C62.1627 30.6415 62.4193 30.3857 62.4193 30.0707C62.4193 29.7554 62.1627 29.4999 61.8464 29.4999C61.5297 29.4999 61.2732 29.7554 61.2732 30.0707C61.2732 30.3857 61.5297 30.6415 61.8464 30.6415Z" fill="#F8A547"/>
<path d="M62.2448 29.2904C62.3479 29.2904 62.4317 29.2072 62.4317 29.1043C62.4317 29.0016 62.3479 28.9181 62.2448 28.9181C62.1417 28.9181 62.0579 29.0016 62.0579 29.1043C62.0579 29.2072 62.1417 29.2904 62.2448 29.2904Z" fill="#F8A547"/>
<path d="M60.5379 30.7537C60.641 30.7537 60.7248 30.6705 60.7248 30.5675C60.7248 30.4648 60.641 30.3816 60.5379 30.3816C60.4348 30.3816 60.351 30.4648 60.351 30.5675C60.351 30.6705 60.4348 30.7537 60.5379 30.7537Z" fill="#F8A547"/>
<path d="M63.2789 29.9323C63.4097 29.9323 63.5156 29.8268 63.5156 29.6966C63.5156 29.5664 63.4097 29.4609 63.2789 29.4609C63.1482 29.4609 63.0422 29.5664 63.0422 29.6966C63.0422 29.8268 63.1482 29.9323 63.2789 29.9323Z" fill="#F8A547"/>
<path opacity="0.4" d="M60.6874 30.006C60.7769 30.006 60.8494 29.9338 60.8494 29.8447C60.8494 29.7557 60.7769 29.6835 60.6874 29.6835C60.598 29.6835 60.5255 29.7557 60.5255 29.8447C60.5255 29.9338 60.598 30.006 60.6874 30.006Z" fill="#F8A547"/>
<path opacity="0.4" d="M61.186 29.5364C61.2822 29.5364 61.3603 29.4586 61.3603 29.3628C61.3603 29.2668 61.2822 29.189 61.186 29.189C61.0896 29.189 61.0115 29.2668 61.0115 29.3628C61.0115 29.4586 61.0896 29.5364 61.186 29.5364Z" fill="#F8A547"/>
<path opacity="0.4" d="M61.1729 28.7173C61.2074 28.7173 61.2353 28.6896 61.2353 28.6552C61.2353 28.6211 61.2074 28.5933 61.1729 28.5933C61.1386 28.5933 61.1107 28.6211 61.1107 28.6552C61.1107 28.6896 61.1386 28.7173 61.1729 28.7173Z" fill="#F8A547"/>
<path d="M58.4197 27.897C58.6123 27.897 58.7685 27.7414 58.7685 27.5496C58.7685 27.3578 58.6123 27.2022 58.4197 27.2022C58.2271 27.2022 58.0708 27.3578 58.0708 27.5496C58.0708 27.7414 58.2271 27.897 58.4197 27.897Z" fill="#F8A547"/>
<path d="M52.5471 9.40537C53.1182 8.5906 53.1327 7.6186 52.5798 7.23431C52.0268 6.85002 51.1156 7.19898 50.5447 8.01372C49.9736 8.82849 49.9592 9.80049 50.512 10.1848C51.065 10.5691 51.9762 10.2201 52.5471 9.40537Z" fill="#FFEFAE"/>
<path d="M61.6342 17.5788C61.4668 17.1966 61.2255 16.8509 60.9241 16.5615C60.6296 16.2824 60.2985 16.0445 59.9399 15.8543C59.6006 15.6648 59.2463 15.503 58.8807 15.3705C58.4073 15.1843 57.9589 15.0107 57.5353 14.8246C57.156 14.6699 56.8064 14.4517 56.5011 14.1794C56.3719 14.057 56.2703 13.9084 56.2038 13.7435C56.137 13.5787 56.1068 13.4016 56.1148 13.2241C56.1092 12.9574 56.1692 12.6933 56.2894 12.4549C56.4224 12.2407 56.6181 12.0719 56.8499 11.971C57.163 11.8475 57.4976 11.7884 57.8341 11.7973C58.1889 11.7857 58.5393 11.8762 58.8433 12.0579C59.1318 12.2334 59.3853 12.4605 59.591 12.7278C59.8063 13.0181 59.9979 13.3251 60.164 13.6459L61.7587 12.6162C61.5527 12.1646 61.2796 11.7465 60.9491 11.3755C60.5804 10.9745 60.1356 10.6498 59.6408 10.4202C59.3162 10.2757 58.972 10.1796 58.6192 10.1349V8.22424H57.0369V10.1224C56.6065 10.1754 56.1865 10.2925 55.791 10.4698C55.2537 10.7152 54.7901 11.0958 54.4453 11.574C54.1212 12.0119 53.9505 12.5437 53.9596 13.0876C53.9423 13.5896 54.0493 14.0881 54.271 14.5392C54.4649 14.9252 54.7313 15.2705 55.0559 15.5565C55.363 15.83 55.7069 16.0597 56.0775 16.2389C56.3967 16.3995 56.7254 16.5403 57.0619 16.6607C57.5103 16.8344 57.9463 17.0081 58.3078 17.2066C58.6827 17.3761 59.0212 17.6162 59.3043 17.9138C59.5678 18.2106 59.7063 18.5973 59.6906 18.9932C59.7027 19.2991 59.6341 19.6028 59.4912 19.874C59.3608 20.122 59.1501 20.3187 58.8933 20.4323C58.5702 20.5673 58.2216 20.6308 57.8715 20.6184C57.4391 20.6258 57.0113 20.5279 56.6256 20.3331C56.2443 20.1201 55.9099 19.8332 55.6414 19.4894C55.314 19.082 55.0378 18.6362 54.8192 18.1619L53.2618 19.1669C53.5027 19.7742 53.858 20.33 54.3084 20.8045C54.7488 21.2814 55.2776 21.669 55.8658 21.9459C56.2138 22.1076 56.5828 22.2203 56.9621 22.2809V24.1047H58.5692V22.3181C59.0733 22.2799 59.5668 22.1539 60.027 21.9459C60.5953 21.674 61.0715 21.2428 61.3975 20.7053C61.7198 20.1519 61.8835 19.5211 61.8708 18.8815C61.8827 18.4357 61.802 17.9923 61.6342 17.5788Z" fill="white"/>
</g>
<defs>
<clipPath id="clip0_120_103">
<rect width="74" height="76" fill="white"/>
</clipPath>
</defs>
</svg>
