<svg width="60" height="60" viewBox="0 0 60 60" fill="none" xmlns="http://www.w3.org/2000/svg">
<path d="M30 43.75C35.825 43.75 40.75 40.1 42.775 35H17.225C19.225 40.1 24.175 43.75 30 43.75ZM21.25 27.5C22.2446 27.5 23.1984 27.1049 23.9017 26.4017C24.6049 25.6984 25 24.7446 25 23.75C25 22.7554 24.6049 21.8016 23.9017 21.0983C23.1984 20.3951 22.2446 20 21.25 20C20.2554 20 19.3016 20.3951 18.5983 21.0983C17.8951 21.8016 17.5 22.7554 17.5 23.75C17.5 24.7446 17.8951 25.6984 18.5983 26.4017C19.3016 27.1049 20.2554 27.5 21.25 27.5ZM38.75 27.5C39.7446 27.5 40.6984 27.1049 41.4016 26.4017C42.1049 25.6984 42.5 24.7446 42.5 23.75C42.5 22.7554 42.1049 21.8016 41.4016 21.0983C40.6984 20.3951 39.7446 20 38.75 20C37.7554 20 36.8016 20.3951 36.0983 21.0983C35.3951 21.8016 35 22.7554 35 23.75C35 24.7446 35.3951 25.6984 36.0983 26.4017C36.8016 27.1049 37.7554 27.5 38.75 27.5ZM30 50C24.6957 50 19.6086 47.8929 15.8579 44.1421C12.1071 40.3914 10 35.3043 10 30C10 24.6957 12.1071 19.6086 15.8579 15.8579C19.6086 12.1071 24.6957 10 30 10C35.3043 10 40.3914 12.1071 44.1421 15.8579C47.8929 19.6086 50 24.6957 50 30C50 35.3043 47.8929 40.3914 44.1421 44.1421C40.3914 47.8929 35.3043 50 30 50ZM30 5C16.175 5 5 16.25 5 30C5 36.6304 7.63392 42.9893 12.3223 47.6777C14.6438 49.9991 17.3998 51.8406 20.4329 53.097C23.4661 54.3534 26.717 55 30 55C36.6304 55 42.9893 52.3661 47.6777 47.6777C52.3661 42.9893 55 36.6304 55 30C55 26.717 54.3534 23.4661 53.097 20.4329C51.8406 17.3998 49.9991 14.6438 47.6777 12.3223C45.3562 10.0009 42.6002 8.15938 39.5671 6.90301C36.5339 5.64664 33.283 5 30 5Z" fill="white"/>
</svg>
