<svg width="173" height="222" viewBox="0 0 173 222" fill="none" xmlns="http://www.w3.org/2000/svg">
<path fill-rule="evenodd" clip-rule="evenodd" d="M113.858 32.9843C116.81 29.5195 118.808 25.2733 118.474 20.5153C117.512 6.8063 98.4283 9.82211 94.7162 16.7413C91.0041 23.6604 91.4452 41.2114 96.2428 42.448C98.156 42.9412 102.232 41.7331 106.38 39.2328L103.776 57.6535H119.151L113.858 32.9843Z" fill="#B28B67"/>
<path fill-rule="evenodd" clip-rule="evenodd" d="M87.9052 7.14932C88.2235 6.03024 89.0799 5.07207 90.2339 4.78781C90.5138 4.71886 90.8028 4.69101 91.0908 4.70262C91.1941 4.70675 91.223 4.73653 91.2713 4.6643C91.3071 4.61074 91.3079 4.47991 91.3226 4.41697C91.3685 4.22127 91.4259 4.028 91.4966 3.83974C91.7381 3.19764 92.1439 2.62937 92.6331 2.15067C93.5481 1.2551 94.7844 0.637023 96.0688 0.525203C96.7718 0.464035 97.4697 0.578253 98.1343 0.80694C98.4784 0.925323 98.8121 1.07273 99.137 1.23571C99.2349 1.28476 99.5523 1.52502 99.6505 1.50945C99.7589 1.49229 99.9769 1.22279 100.065 1.15515C101.155 0.318939 102.501 -0.00983129 103.858 0.000223226C105.391 0.0115398 106.866 0.0881058 108.144 1.02221C108.415 1.21997 108.672 1.4365 108.918 1.66448C109.047 1.7845 109.172 1.90902 109.291 2.03872C109.363 2.11697 109.433 2.19699 109.501 2.27915C109.615 2.41861 109.597 2.46442 109.757 2.36712C110.372 1.99346 111.085 1.8187 111.803 1.90692C112.229 1.95934 112.644 2.08731 113.038 2.25576C113.172 2.3131 113.482 2.54183 113.625 2.54406C113.767 2.54624 114.073 2.33422 114.219 2.28033C115.008 1.98917 115.858 1.9174 116.687 2.05193C117.542 2.19076 118.382 2.53194 119.106 3.00341C119.455 3.2302 119.759 3.48148 120.003 3.81871C120.109 3.96431 120.204 4.11832 120.323 4.25332C120.393 4.33237 120.532 4.41348 120.57 4.51352C120.547 4.45362 121.505 4.08442 121.595 4.06082C122.077 3.93507 122.567 3.96057 123.038 4.11572C123.925 4.40747 124.687 5.06172 125.314 5.73251C125.636 6.07706 125.917 6.45791 126.156 6.86367C126.271 7.05803 126.376 7.25794 126.472 7.4621C126.518 7.56101 126.549 7.68473 126.61 7.77383C126.689 7.88864 126.742 7.89083 126.885 7.94089C127.61 8.19507 128.272 8.62531 128.775 9.20667C129.285 9.79483 129.615 10.5191 129.754 11.2819C129.762 11.3268 129.767 11.513 129.793 11.5373C129.829 11.5708 129.975 11.556 130.03 11.5625C130.222 11.5849 130.411 11.6183 130.599 11.6626C130.944 11.7443 131.28 11.8645 131.598 12.0218C132.837 12.6348 133.723 13.784 134.156 15.0771C134.611 16.4342 134.603 17.9889 134.059 19.3207C133.971 19.5358 133.867 19.7446 133.744 19.9421C133.669 20.0633 133.644 20.0636 133.693 20.1908C133.748 20.3323 133.848 20.4699 133.912 20.6081C134.124 21.0594 134.272 21.538 134.365 22.0269C134.518 22.8288 134.594 23.6714 134.443 24.4794C134.373 24.8546 134.25 25.2214 134.064 25.5555C133.969 25.7259 133.858 25.8875 133.732 26.037C133.667 26.1146 133.598 26.1887 133.525 26.2597C133.484 26.3003 133.429 26.3358 133.394 26.3811C133.308 26.4916 133.29 26.4007 133.335 26.5629C133.397 26.7897 133.537 27.0135 133.623 27.2342C133.712 27.4616 133.792 27.6922 133.865 27.925C134.014 28.3964 134.139 28.8764 134.218 29.3646C134.369 30.3019 134.342 31.3007 133.899 32.1609C133.709 32.5289 133.437 32.8517 133.107 33.1028C132.946 33.2257 132.771 33.3316 132.588 33.4185C132.493 33.4633 132.373 33.4825 132.33 33.5736C132.284 33.6716 132.352 33.8663 132.368 33.9759C132.504 34.9293 132.573 35.9303 132.289 36.8645C132.028 37.725 131.454 38.4848 130.707 38.9878C129.26 39.9636 127.309 39.9086 125.788 39.1274C125.391 38.9238 125.021 38.6709 124.69 38.3727C123.847 39.5069 122.113 39.471 120.882 39.1478C119.348 38.7452 118.117 37.6785 117.408 36.2769C116.438 37.4575 114.403 37.0744 113.73 35.7937C113.565 35.4802 113.468 35.1348 113.42 34.7852C113.394 34.6013 113.411 34.4159 113.392 34.2335C113.367 34.0011 113.212 33.7753 113.123 33.5505C112.949 33.113 112.841 32.661 112.837 32.1891C112.834 31.9427 112.865 31.7026 112.889 31.4581C112.91 31.2381 112.849 31.0331 112.814 30.816C113.208 30.8807 113.687 30.7746 114.058 30.6606C114.421 30.5486 114.762 30.2537 115.019 29.9845C115.615 29.3591 115.979 28.5394 116.228 27.7236C116.775 25.933 116.551 23.7846 114.75 22.8019C113.911 22.3441 111.397 22.3456 110.398 22.5718C109.347 22.8097 108.156 25.1282 108.097 25.3461C108.061 25.481 108.079 25.6479 107.956 25.7378C107.683 25.9354 107.234 25.5925 107.033 25.4232C106.687 25.1312 106.44 24.7425 106.225 24.3486C105.759 23.4904 105.383 22.57 105.117 21.6305C104.912 20.9062 104.781 20.1592 104.514 19.4534C104.247 18.751 103.827 18.1232 103.174 17.7253C102.464 17.2924 101.65 17.0645 100.87 16.7924C100.097 16.5229 99.3379 16.1934 98.7388 15.6214C98.6071 15.4956 98.4791 15.3619 98.3731 15.2138C98.2894 15.0969 98.2066 14.8731 98.0791 14.799C97.8808 14.6837 97.5915 14.9836 97.42 15.0924C96.5742 15.6296 95.8685 16.3789 95.2993 17.1974C94.7333 18.0114 94.2688 18.7947 93.8914 19.7037C93.6115 20.3779 93.4368 21.2412 92.9444 21.7937C92.7246 22.0404 91.0908 22.1897 90.5615 21.9743C90.0323 21.7589 89.4392 21.1997 89.2616 20.8492C89.0797 20.4905 89.0363 20.0964 89.114 19.7037C89.1597 19.4727 89.253 19.2568 89.3041 19.0299C89.3471 18.8393 89.3861 18.6591 89.4789 18.4845C89.6547 18.1536 89.9551 17.9157 90.3174 17.8163C89.9404 17.4687 89.628 17.0528 89.4118 16.5879C89.1872 16.105 88.9968 15.5177 88.9428 14.9876C88.8989 14.5571 88.9667 14.111 89.2023 13.741C89.4496 13.3529 89.8876 13.0997 90.2666 12.8575C89.6877 12.4046 89.1922 11.8538 88.7849 11.244C87.9928 10.0581 87.5029 8.56318 87.9052 7.14932Z" fill="#191847"/>
<path fill-rule="evenodd" clip-rule="evenodd" d="M162.071 137.728H88.4022C82.7415 137.728 78.1526 142.317 78.1526 147.977V206.912C78.1526 212.573 82.7415 217.162 88.4022 217.162H162.071C167.731 217.162 172.32 212.573 172.32 206.912V147.977C172.32 142.317 167.731 137.728 162.071 137.728ZM151.821 155.665C153.236 155.665 154.383 156.812 154.383 158.227V196.663C154.383 198.078 153.236 199.225 151.821 199.225H98.6517C97.2365 199.225 96.0893 198.078 96.0893 196.663V158.227C96.0893 156.812 97.2365 155.665 98.6517 155.665H151.821Z" fill="#C5CFD6"/>
<path fill-rule="evenodd" clip-rule="evenodd" d="M32.3442 215.022C40.552 196.856 46.4878 181.037 48.8704 172.692C52.95 158.402 56.0535 145.827 56.8379 141.131C58.7084 129.933 42.4489 129.281 40.2997 134.846C37.0469 143.269 31.3681 170.944 24.5447 212.746L32.3442 215.022ZM127.55 158.011C120.019 155.035 93.6473 145.719 80.9282 143.084C77.2732 142.327 73.7307 141.623 70.4001 140.987C60.5004 139.097 55.3714 156.957 64.906 158.329C88.651 161.747 122.313 165.276 125.194 165.672C129.232 166.227 132.283 159.882 127.55 158.011Z" fill="#B28B67"/>
<path fill-rule="evenodd" clip-rule="evenodd" d="M64.324 136.073L105.058 115.337V110.823H100.213C60.8054 120.865 40.668 127.3 39.8011 130.129C39.7918 130.159 39.7832 130.19 39.7754 130.22C39.7556 130.247 39.7361 130.273 39.7169 130.299C31.9071 141.04 27.2299 193.477 25.6947 197.403L40.6601 199.636C46.3847 178.408 64.7001 163.62 64.2136 138.195C64.345 137.449 64.3782 136.742 64.324 136.073Z" fill="#1F28CF"/>
<path fill-rule="evenodd" clip-rule="evenodd" d="M101.673 148.388C105.4 147.642 108.833 146.976 111.769 146.461C130.74 143.133 136.272 132.979 133.001 110.823H98.0485C92.339 112.463 62.667 124.906 47.2719 131.525C37.0826 135.905 40.2946 151.696 46.0648 155.805C46.0961 156.057 46.2 156.228 46.3849 156.305C77.4245 169.17 101.98 162.42 110.183 164.577L113.977 152.608L101.673 148.388Z" fill="#2B44FF"/>
<path fill-rule="evenodd" clip-rule="evenodd" d="M124.975 156.109C127.009 156.303 128.452 156.609 129.306 157.025C130.344 157.532 131.775 158.444 133.598 159.761L117.76 192.235C114.558 191.718 113.29 190.497 113.954 188.57C114.618 186.643 115.154 185.035 115.561 183.745L116.194 165.369C116.206 165.016 116.503 164.739 116.856 164.751C116.862 164.751 116.868 164.752 116.875 164.752L119.701 164.93C121.307 163.63 122.367 162.453 122.88 161.401C123.297 160.546 123.528 159.197 123.572 157.354L123.572 157.354C123.589 156.646 124.176 156.087 124.884 156.104C124.914 156.104 124.945 156.106 124.975 156.109Z" fill="#E4E4E4"/>
<path fill-rule="evenodd" clip-rule="evenodd" d="M36.0795 211.654C36.7962 213.567 37.1545 214.998 37.1545 215.948C37.1545 217.103 36.9621 218.789 36.5772 221.005H0.446499C-0.492409 217.901 0.0495834 216.225 2.07248 215.978C4.09537 215.73 5.77583 215.507 7.11384 215.308L23.907 207.821C24.2302 207.677 24.6089 207.822 24.753 208.145C24.7554 208.151 24.7578 208.156 24.7601 208.162L25.8396 210.781C27.7122 211.654 29.234 212.091 30.4048 212.091C31.3561 212.091 32.6697 211.707 34.3459 210.939L34.3459 210.939C34.9891 210.644 35.7496 210.926 36.0444 211.569C36.0571 211.597 36.0688 211.625 36.0795 211.654Z" fill="#E4E4E4"/>
<path fill-rule="evenodd" clip-rule="evenodd" d="M67.8746 100.652L49.7279 118.355C44.4479 120.607 40.1216 123.094 36.7492 125.815C35.9908 126.73 35.1651 128.483 38.7334 127.699C42.3017 126.914 46.0903 126.25 46.7609 127.41C47.4316 128.571 45.4554 130.349 46.6949 131.868C47.5212 132.88 50.3001 129.66 55.0316 122.206L73.9018 111.081L67.8746 100.652ZM148.421 103.149L135.034 103.201C143.3 129.884 147.762 144.042 148.421 145.675C149.903 149.348 146.766 154.943 145.425 157.95C149.794 159.905 149.328 152.665 154.839 155.229C159.87 157.569 163.697 161.809 169.508 158.223C170.223 157.782 171.006 156.122 169.114 154.825C164.401 151.593 157.609 145.937 156.691 144.075C155.439 141.536 152.683 127.894 148.421 103.149Z" fill="#B28B67"/>
<path fill-rule="evenodd" clip-rule="evenodd" d="M110.378 46.9761L104.838 46.026C95.3016 69.8499 78.6512 91.4969 54.8872 110.967L72.8445 132.783C96.6056 105.06 111.252 76.4581 110.378 46.9761Z" fill="#191847"/>
<path fill-rule="evenodd" clip-rule="evenodd" d="M134.525 116.588H85.1991C96.6268 88.8026 102.341 65.1989 102.341 45.7774L117.22 43.5605C128.913 62.3673 132.216 85.5223 134.525 116.588Z" fill="#DDE3E9"/>
<path fill-rule="evenodd" clip-rule="evenodd" d="M117.535 43.571C117.533 43.5675 117.531 43.564 117.529 43.5605H116.558C115.396 43.6005 113.625 43.6726 111.247 43.7768L107.652 54.0514C107.272 66.5786 105.051 91.8242 100.989 129.788H133.323C133.238 132.41 133.099 135.057 132.904 137.728H156.946C153.35 97.1552 140.217 65.766 117.547 43.5605L117.535 43.571V43.571Z" fill="#2F3676"/>
<path fill-rule="evenodd" clip-rule="evenodd" d="M131.187 96.2385C130.267 112.583 127.963 123.851 124.275 130.041H133.315C133.711 118.281 133.001 107.014 131.187 96.2385V96.2385Z" fill="black" fill-opacity="0.1"/>
<path fill-rule="evenodd" clip-rule="evenodd" d="M126.126 110.182L110.182 102.77V110.182H126.126Z" fill="white" fill-opacity="0.2"/>
</svg>
