<svg width="174" height="298" viewBox="0 0 174 298" fill="none" xmlns="http://www.w3.org/2000/svg">
<path fill-rule="evenodd" clip-rule="evenodd" d="M80.0471 35.0496C75.6187 29.8516 72.6215 23.4813 73.1223 16.3432C74.5654 -4.22372 103.195 0.30073 108.764 10.6811C114.333 21.0615 113.672 47.3922 106.474 49.2475C103.604 49.9874 97.4889 48.175 91.2655 44.4239L95.1718 72.0594H72.1067L80.0471 35.0496Z" fill="#B28B67"/>
<path fill-rule="evenodd" clip-rule="evenodd" d="M92.4188 18.6146C93.3017 30.9133 95.6372 37.0626 99.4253 37.0626C105.108 37.0626 109.929 33.4552 112.422 33.4552C114.24 33.4552 113.834 35.7297 112.629 37.4161C111.635 38.8074 106.795 40.1485 106.795 42.3055C106.795 44.4625 110.619 42.7937 110.619 44.073C110.619 46.1891 111.291 50.1677 107.619 50.1677C103.902 50.1677 93.2448 48.8132 91.4185 43.2967C90.2398 39.7365 89.4778 32.3591 89.1322 21.1645C88.9068 21.1377 88.6773 21.1239 88.4446 21.1239C85.26 21.1239 82.6783 23.7056 82.6783 26.8902C82.6783 28.5069 83.3436 29.9682 84.4154 31.0152C83.0812 32.8985 81.5859 34.8658 79.8724 36.8959C73.4354 33.0339 68.6587 21.7284 74.952 10.8679C76.6914 5.5475 80.6294 2.70569 85.2802 1.38614C89.0476 -0.189779 92.9585 -0.367465 96.2599 0.577282C102.731 1.13238 108.51 3.10574 110.148 4.27768C110.148 10.4046 108.961 12.2224 98.8208 12.0622C96.3293 13.378 94.4139 15.6439 92.4188 18.6146Z" fill="#191847"/>
<path fill-rule="evenodd" clip-rule="evenodd" d="M75.1204 131L108.607 219.607L132.078 284.916H145.462L113.198 131H75.1204Z" fill="#1F28CF"/>
<path fill-rule="evenodd" clip-rule="evenodd" d="M66.8442 131C66.4802 161.403 66.7433 202.336 65.8952 204.231C65.3298 205.494 47.7435 219.89 13.1362 247.417L20.0346 259.147C61.1213 232.651 82.715 217.638 84.8156 214.108C87.9665 208.813 103.796 160.086 112.032 131H66.8442Z" fill="#2B44FF"/>
<path fill-rule="evenodd" clip-rule="evenodd" d="M0.999977 255.31L12.6514 246.443L22.0525 257.647C22.7756 266.093 25.5721 275.565 30.4419 286.064L28.3078 287.855L11.2964 267.581L6.5437 259.75L5.47668 260.646L0.999977 255.31Z" fill="#191847"/>
<path fill-rule="evenodd" clip-rule="evenodd" d="M130.836 297.452L131.533 282.826H146.158C153.093 287.701 162.147 291.648 173.32 294.666V297.452H146.855L137.801 296.059V297.452H130.836Z" fill="#191847"/>
<path fill-rule="evenodd" clip-rule="evenodd" d="M133.146 110.727L157.761 99.9168C162.073 95.62 166.237 92.3542 170.253 90.1195C171.453 89.7372 173.505 89.6217 171.316 92.8186C169.127 96.0154 166.969 99.4765 167.844 100.597C168.718 101.717 171.252 100.481 172.252 102.303C172.92 103.517 168.649 104.97 159.441 106.662L141.006 120.796L133.146 110.727ZM33.6319 113.704L47.5523 116.466C33.553 142.556 26.0454 156.383 25.0295 157.948C22.7439 161.47 24.8764 167.925 25.6642 171.325C20.7222 172.475 22.6712 165.037 16.4172 166.59C10.7089 168.007 5.86888 171.645 0.54609 166.739C-0.108316 166.136 -0.587372 164.25 1.64383 163.283C7.20257 160.874 15.4151 156.363 16.7468 154.611C18.5628 152.223 24.1911 138.587 33.6319 113.704Z" fill="#B28B67"/>
<path fill-rule="evenodd" clip-rule="evenodd" d="M85.3869 61.6222L91.2611 60.6146C104.056 73.0258 109.277 102.844 117.803 106.79C125.865 110.522 137.293 106.911 150.877 102.035L155.037 111.33C142.694 124.682 116.401 135.963 105.743 129.523C88.703 119.227 84.7693 82.4512 85.3869 61.6222Z" fill="#DB2721"/>
<path fill-rule="evenodd" clip-rule="evenodd" d="M59.78 135.442H111.756C114.131 135.442 113.683 132.013 113.34 130.282C109.377 110.31 93.9099 88.781 93.9099 60.3509L78.9177 58C66.5172 77.9437 62.2289 102.498 59.78 135.442Z" fill="#DDE3E9"/>
<path fill-rule="evenodd" clip-rule="evenodd" d="M54.5959 115.221C44.0004 134.334 35.0942 148.094 27.8774 156.501L16.9829 154.367C24.0007 110.845 44.3232 78.7222 77.9505 58H78.1216H83.8866C97.3456 103.879 101.056 134.448 95.0178 149.708H48.2316C48.9718 138.542 51.3452 126.734 54.5959 115.221H54.5959Z" fill="#FF4133"/>
</svg>
